<svg xmlns="http://www.w3.org/2000/svg" xmlns:xlink="http://www.w3.org/1999/xlink"><symbol id="icon-close" viewBox="0 0 20 20"><g fill="none"><path d="M.293 18.291a1 1 0 101.414 1.414L10 11.413l8.292 8.292a1 1 0 101.414-1.414l-8.292-8.292 8.292-8.292A1 1 0 1018.291.293L9.999 8.585 1.707.293A1 1 0 10.293 1.707L8.585 10 .293 18.291z"/></g></symbol><symbol id="logo" viewBox="0 0 119 23"><g fill="none">
<path d="M5.768 22.252C4.592 22.252 3.572 22.072 2.708 21.712C1.844 21.352 1.184 20.716 0.728 19.804C0.296 18.892 0.08 17.608 0.08 15.952V14.728C0.656 14.728 1.244 14.728 1.844 14.728C2.444 14.728 3.032 14.728 3.608 14.728V16.24C3.608 17.248 3.704 18.028 3.896 18.58C4.088 19.132 4.352 19.516 4.688 19.732C5.024 19.924 5.408 20.02 5.84 20.02C6.536 20.02 7.088 19.792 7.496 19.336C7.928 18.856 8.144 17.968 8.144 16.672C8.144 15.712 8 14.992 7.712 14.512C7.424 14.032 6.968 13.648 6.344 13.36C5.744 13.048 4.964 12.7 4.004 12.316C3.212 11.956 2.528 11.536 1.952 11.056C1.376 10.576 0.944 9.964 0.656 9.22C0.368 8.476 0.224 7.552 0.224 6.448C0.224 5.104 0.392 4.012 0.728 3.172C1.088 2.308 1.688 1.684 2.528 1.3C3.368 0.891999 4.496 0.688 5.912 0.688C7.736 0.688 9.128 1.108 10.088 1.948C11.048 2.764 11.528 3.964 11.528 5.548V8.032C10.976 8.032 10.412 8.032 9.836 8.032C9.284 8.032 8.72 8.032 8.144 8.032V6.556C8.144 5.452 7.964 4.66 7.604 4.18C7.268 3.676 6.716 3.424 5.948 3.424C5.156 3.424 4.58 3.664 4.22 4.144C3.884 4.6 3.716 5.332 3.716 6.34C3.716 7.204 3.884 7.876 4.22 8.356C4.556 8.812 4.988 9.172 5.516 9.436C6.068 9.7 6.632 9.94 7.208 10.156C8.288 10.564 9.164 10.984 9.836 11.416C10.508 11.848 11 12.424 11.312 13.144C11.624 13.864 11.78 14.884 11.78 16.204C11.78 17.716 11.528 18.916 11.024 19.804C10.544 20.668 9.848 21.292 8.936 21.676C8.048 22.06 6.992 22.252 5.768 22.252ZM20.9164 22.432C20.1004 22.432 19.3444 22.372 18.6484 22.252C17.9524 22.132 17.3524 21.892 16.8484 21.532C16.3444 21.172 15.9484 20.632 15.6604 19.912C15.3724 19.192 15.2284 18.22 15.2284 16.996V0.723999H18.6844V17.896C18.6844 18.544 18.7804 19.048 18.9724 19.408C19.1884 19.744 19.4644 19.972 19.8004 20.092C20.1364 20.212 20.5084 20.272 20.9164 20.272C21.3244 20.272 21.6964 20.212 22.0324 20.092C22.3684 19.972 22.6324 19.744 22.8244 19.408C23.0404 19.048 23.1484 18.544 23.1484 17.896V0.723999H26.5684V16.96C26.5684 18.184 26.4244 19.168 26.1364 19.912C25.8724 20.632 25.4884 21.172 24.9844 21.532C24.4804 21.892 23.8804 22.132 23.1844 22.252C22.4884 22.372 21.7324 22.432 20.9164 22.432ZM30.822 22V0.723999H38.022C39.366 0.723999 40.398 1.024 41.118 1.624C41.838 2.224 42.198 3.112 42.198 4.288V8.068C42.198 8.98 42.078 9.832 41.838 10.624C41.622 11.392 41.19 12.016 40.542 12.496C39.918 12.976 39.006 13.216 37.806 13.216H34.422V22H30.822ZM34.422 11.272H36.618C37.338 11.272 37.878 10.996 38.238 10.444C38.598 9.868 38.778 8.944 38.778 7.672V5.764C38.778 4.636 38.622 3.832 38.31 3.352C37.998 2.872 37.566 2.632 37.014 2.632H34.422V11.272ZM45.6045 22V0.723999H55.1805V3.172H49.2045V9.616H54.1365V12.316H49.2045V19.624H55.1805V22H45.6045ZM58.4534 22V0.723999H65.7974C67.1414 0.723999 68.1734 1.024 68.8934 1.624C69.6374 2.224 70.0094 3.112 70.0094 4.288V7.672C70.0094 8.848 69.6854 9.808 69.0374 10.552C68.3894 11.272 67.4294 11.668 66.1574 11.74C66.9734 11.812 67.5494 12.076 67.8854 12.532C68.2454 12.988 68.5694 13.696 68.8574 14.656L70.9094 22H67.0934L65.4014 14.908C65.2334 14.308 65.0414 13.78 64.8254 13.324C64.6094 12.868 64.2614 12.64 63.7814 12.64H62.0174V22H58.4534ZM62.0174 10.228H64.3214C65.1614 10.228 65.7494 10.012 66.0854 9.58C66.4454 9.148 66.6254 8.488 66.6254 7.6V4.9C66.6254 4.108 66.4574 3.532 66.1214 3.172C65.8094 2.812 65.3174 2.632 64.6454 2.632H62.0174V10.228ZM78.6132 22.396C77.7972 22.396 77.0292 22.264 76.3092 22C75.5892 21.76 75.0012 21.268 74.5452 20.524C74.1132 19.756 73.8972 18.616 73.8972 17.104V5.224C73.8972 3.928 74.1372 2.944 74.6172 2.272C75.0972 1.576 75.7692 1.108 76.6332 0.868C77.4972 0.603999 78.4932 0.471998 79.6212 0.471998C80.7492 0.471998 81.7452 0.603999 82.6092 0.868C83.4732 1.132 84.1452 1.612 84.6252 2.308C85.1292 2.98 85.3812 3.952 85.3812 5.224V8.104H82.0332V5.08C82.0332 4.36 81.9252 3.82 81.7092 3.46C81.5172 3.1 81.2412 2.86 80.8812 2.74C80.5452 2.62 80.1372 2.56 79.6572 2.56C79.2252 2.56 78.8292 2.62 78.4692 2.74C78.1092 2.86 77.8212 3.1 77.6052 3.46C77.4132 3.82 77.3172 4.36 77.3172 5.08V17.86C77.3172 18.58 77.4132 19.12 77.6052 19.48C77.8212 19.84 78.1092 20.08 78.4692 20.2C78.8292 20.32 79.2252 20.38 79.6572 20.38C80.3532 20.38 80.9172 20.176 81.3492 19.768C81.8052 19.336 82.0332 18.7 82.0332 17.86V13.54H79.9092V11.56H85.3812V22H82.7892L82.6092 20.2C82.5612 20.296 82.5012 20.404 82.4292 20.524C82.3572 20.62 82.2972 20.704 82.2492 20.776C81.9612 21.208 81.5292 21.592 80.9532 21.928C80.4012 22.24 79.6212 22.396 78.6132 22.396ZM91.9112 22V12.856L87.9512 0.723999H91.3712L93.6032 7.996L93.7832 9.112L93.9992 7.996L96.3392 0.723999H99.5432L95.3672 13.036V22H91.9112ZM102.449 22V0.723999H106.697L110.261 15.844L113.861 0.723999H118.073V22H115.013V5.584L111.449 22H109.073L105.509 5.584V22H102.449Z" fill="white"/>
</g></symbol><symbol id="ok" viewBox="0 0 25 25"><g fill="none">
<path d="M12.5 0C5.59692 0 0 5.59692 0 12.5C0 19.4031 5.59692 25 12.5 25C19.4031 25 25 19.4031 25 12.5C25 5.59692 19.4031 0 12.5 0Z" fill="white"/>
<path d="M12.6803 6.88903C13.5788 6.88903 14.3095 7.64334 14.3095 8.57085C14.3095 9.49557 13.5788 10.2499 12.6803 10.2499C11.7818 10.2499 11.0511 9.49557 11.0511 8.57085C11.0511 7.64334 11.7818 6.88903 12.6803 6.88903ZM12.6803 12.6301C14.8507 12.6301 16.6152 10.8086 16.6152 8.57085C16.6152 6.33029 14.8507 4.50879 12.6803 4.50879C10.5098 4.50879 8.748 6.33029 8.748 8.57085C8.748 10.8086 10.5098 12.6301 12.6803 12.6301ZM14.2716 15.9435C15.0726 15.7535 15.8439 15.4266 16.5557 14.9657C17.0942 14.6164 17.2566 13.8817 16.9183 13.3258C16.5773 12.767 15.8683 12.5994 15.327 12.9514C13.7168 13.9962 11.6437 13.9962 10.0308 12.9514C9.49223 12.5994 8.78047 12.767 8.44219 13.3258C8.1039 13.8817 8.26628 14.6164 8.80483 14.9657C9.51659 15.4266 10.2879 15.7535 11.089 15.9435L8.88873 18.212C8.43948 18.6757 8.43948 19.43 8.88873 19.8938C9.11606 20.1257 9.40834 20.243 9.70332 20.243C9.99831 20.243 10.2933 20.1257 10.5206 19.8938L12.6803 17.6644L14.8426 19.8938C15.2918 20.3603 16.0198 20.3603 16.4718 19.8938C16.921 19.43 16.921 18.6757 16.4718 18.212L14.2716 15.9435Z" fill="#030A1A"/>
</g></symbol><symbol id="reddit" viewBox="0 0 25 25"><g fill="none">
<path d="M12.5 0C5.59692 0 0 5.59692 0 12.5C0 19.4031 5.59692 25 12.5 25C19.4031 25 25 19.4031 25 12.5C25 5.59692 19.4031 0 12.5 0Z" fill="white"/>
<path d="M13.851 5.55566C13.4056 5.55566 12.9877 5.7816 12.7196 6.10741C12.4516 6.43323 12.3038 6.8304 12.1962 7.24897C12.0252 7.92201 11.9724 8.66877 11.9597 9.34181C10.7081 9.42505 9.57457 9.79606 8.63316 10.3692C8.2511 10.0481 7.79095 9.86978 7.3498 9.87454C6.84743 9.87929 6.3704 10.0957 6.01579 10.5404C5.33823 11.3895 5.41632 12.7784 6.20154 13.6036C6.15299 13.8581 6.1171 14.1197 6.1171 14.3837C6.1171 17.1805 8.9751 19.4446 12.5001 19.4446C16.0251 19.4446 18.8831 17.1781 18.8831 14.3837C18.8831 14.1197 18.8472 13.8581 18.7987 13.6036C19.5839 12.7784 19.662 11.3895 18.9844 10.5404C18.6298 10.0957 18.1528 9.87929 17.6504 9.87454C17.2093 9.86978 16.7491 10.0481 16.3671 10.3692C15.4299 9.79843 14.3027 9.42743 13.0574 9.34181C13.0742 8.72109 13.1186 8.07659 13.2431 7.59143C13.3212 7.28702 13.4141 7.06584 13.5133 6.94455C13.6125 6.82326 13.6843 6.77332 13.851 6.77332C14.212 6.77332 14.2584 6.88985 14.4758 7.17286C14.5856 7.31556 14.7122 7.49393 14.9148 7.66754C15.1175 7.84115 15.4172 7.99098 15.7423 7.99098V6.77332C15.6515 6.77332 15.6346 6.77094 15.5734 6.71624C15.5122 6.66154 15.4278 6.5355 15.3032 6.37378C15.0542 6.04796 14.5708 5.55566 13.851 5.55566ZM17.3634 5.66982C16.5233 5.66982 15.8436 6.43561 15.8436 7.38215C15.8436 8.32869 16.5233 9.09448 17.3634 9.09448C18.2034 9.09448 18.8831 8.32869 18.8831 7.38215C18.8831 6.43561 18.2034 5.66982 17.3634 5.66982ZM17.3634 6.27865C17.9037 6.27865 18.3428 6.77332 18.3428 7.38215C18.3428 7.99098 17.9037 8.48565 17.3634 8.48565C16.823 8.48565 16.3839 7.99098 16.3839 7.38215C16.3839 6.77332 16.823 6.27865 17.3634 6.27865ZM12.5001 10.2931C15.4911 10.2931 18.0219 12.1695 18.0219 14.3837C18.0219 16.6002 15.4911 18.4742 12.5001 18.4742C9.50913 18.4742 6.9783 16.6002 6.9783 14.3837C6.9783 12.1695 9.50913 10.2931 12.5001 10.2931ZM7.36669 10.8449C7.51655 10.8472 7.67275 10.8853 7.82262 10.959C7.28015 11.4228 6.84955 11.9555 6.55615 12.5572C6.35351 12.0863 6.40839 11.4989 6.65746 11.1873C6.83899 10.959 7.09017 10.8425 7.36669 10.8449ZM17.6335 10.8449C17.91 10.8425 18.1612 10.959 18.3428 11.1873C18.5918 11.4989 18.6467 12.0863 18.4441 12.5572C18.1507 11.9555 17.7201 11.4228 17.1776 10.959C17.3275 10.8853 17.4837 10.8472 17.6335 10.8449ZM10.3387 12.3669C9.79831 12.3669 9.35927 12.8616 9.35927 13.4704C9.35927 14.0793 9.79831 14.5739 10.3387 14.5739C10.879 14.5739 11.3181 14.0793 11.3181 13.4704C11.3181 12.8616 10.879 12.3669 10.3387 12.3669ZM14.6616 12.3669C14.1212 12.3669 13.6821 12.8616 13.6821 13.4704C13.6821 14.0793 14.1212 14.5739 14.6616 14.5739C15.2019 14.5739 15.641 14.0793 15.641 13.4704C15.641 12.8616 15.2019 12.3669 14.6616 12.3669ZM9.81519 16.115C10.1593 16.9165 11.2231 17.6942 12.5001 17.6942C13.7771 17.6942 14.8579 16.9165 15.2019 16.115C14.5771 16.5693 13.5914 16.8761 12.5001 16.8761C11.4088 16.8761 10.44 16.5693 9.81519 16.115Z" fill="#030A1A"/>
</g></symbol><symbol id="vk" viewBox="0 0 15 15"><g fill="none">
<g id="icon / vk">
<g id="icon-vk">
<path id="Shape" d="M8.72271 9.05176C9.16539 8.90867 9.73216 9.99638 10.3355 10.4127C10.7884 10.728 11.1352 10.6599 11.1352 10.6599L12.7434 10.6368C12.7434 10.6368 13.5838 10.5849 13.1865 9.9172C13.1536 9.86163 12.9536 9.4222 11.9895 8.51786C10.9815 7.57185 11.1181 7.72512 12.3317 6.08962C13.0712 5.09267 13.3671 4.48376 13.2745 4.22445C13.1856 3.97486 12.6424 4.03969 12.6424 4.03969L10.8305 4.05219C10.6541 4.05265 10.5045 4.10729 10.4365 4.29066C10.4351 4.29252 10.1489 5.06211 9.76735 5.7164C8.96118 7.10046 8.63936 7.17408 8.506 7.08749C8.19992 6.88699 8.27725 6.28317 8.27725 5.85392C8.27725 4.51246 8.47729 3.9531 7.88551 3.80863C7.68779 3.76047 7.54332 3.72898 7.03905 3.72435C6.39449 3.71463 5.84716 3.72435 5.53692 3.8767C5.33086 3.97996 5.17296 4.20639 5.26881 4.21935C5.3892 4.23556 5.65916 4.29344 5.80363 4.4907C5.98932 4.74631 5.98376 5.3191 5.98376 5.3191C5.98376 5.3191 6.0898 6.89857 5.73371 7.09444C5.48922 7.22872 5.1549 6.9546 4.43578 5.69788C4.06858 5.05516 3.79121 4.34484 3.79121 4.34484C3.79121 4.34484 3.7375 4.21287 3.64026 4.14063C3.52449 4.05497 3.36243 4.02765 3.36243 4.02765L1.64265 4.03876C1.64265 4.03876 1.38427 4.04617 1.28935 4.16008C1.20507 4.26103 1.2824 4.4694 1.2824 4.4694C1.2824 4.4694 2.62942 7.65566 4.15471 9.26059C5.55312 10.734 7.14231 10.6363 7.14231 10.6363H7.86236C7.86236 10.6363 8.07953 10.6113 8.19066 10.4918C8.29439 10.3807 8.28976 10.1719 8.28976 10.1719C8.28976 10.1719 8.2754 9.1953 8.72271 9.05176Z" fill="#030A1A"/>
</g>
</g>
</g></symbol></svg>